<svg xmlns="http://www.w3.org/2000/svg" width="356"  height="213">
	<path  d="M5,213c.39 0 .77-.11 1.11-.34 2-1.26 77.42-47.16 86.1-52.44 22.08 9.49 68.46 13.45 113.56 9.64 32.96-2.79 93.27-12.26 126.87-44.38 14.78-13.84 21.87-31.04 19.44-47.22-3.08-18.83-16.47-35.05-39.8-48.19-29.28-16.5-73.81-27.1-122.17-29.1-47.96-1.97-94.77 4.65-128.39 18.17-18.22 7.24-40.87 18.18-54.48 38.55-10.94 15.08-12.69 35.85-4.41 51.6 8.22 17.29 24.28 28.45 39.01 37.51-5.45 13.29-33.91 58-38.32 62.86-.71.77-.69 1.95.02 2.71.39.42.93.63 1.46.63Z" stroke="black" stroke-width="5" fill="none"/>
</svg>
