<svg xmlns="http://www.w3.org/2000/svg"  width="230" height="186">
	<path d="m200,184c-.42 0-.83-.13-1.19-.39-10.01-7.38-47.32-34.63-52.5-37.64-4.21.56-8.45 1.6-12.55 2.6-6.02 1.47-12.24 2.99-18.69 3.14-57.52 2.68-104.01-18.53-118.36-54.01-9.54-23.59-2.09-49.26 19.92-68.65.01-.01.03-.02.04-.03 20.75-17.33 49.6-27.59 81.26-28.88 29.69-1.21 59.01 5.68 80.44 18.9 27.76 17.13 39.34 42.33 32.61 70.96-.01.06-.03.11-.05.17-5.06 15.36-16.6 29.32-35.28 42.62 7.98 17.15 16.74 33.34 26.04 48.15.51.81.37 1.88-.33 2.53-.38.35-.87.53-1.36.53Z" stroke="black" stroke-width="10" fill="none"/>
</svg>
