<svg xmlns="http://www.w3.org/2000/svg" width="330" height="170">
	<path d="m0,163c-.45 0-.89-.15-1.26-.45-.74-.6-.96-1.65-.5-2.5 7.16-13.39 20.01-38.17 24.42-46.69l-1.56.02c-4.21.04-8.17-1.54-11.16-4.49-2.99-2.95-4.64-6.89-4.64-11.1l.05-82.29c0-4.16 1.63-8.07 4.58-11.01s6.86-4.56 11.03-4.56c184.49.35 248.64.33 270.46.29 4.18 0 8.08 1.61 11.02 4.55 2.95 2.94 4.57 6.86 4.58 11.03l.02 80.1c0 8.53-6.93 15.52-15.45 15.58-50.88.36-214.26 1.49-228.28 1.11-19.75 15.17-41.18 32.42-62 49.93-.37.31-.83.47-1.29.47Z" stroke="black" stroke-width="10" fill="none"/>
</svg>
