<svg xmlns="http://www.w3.org/2000/svg" width="280" height="180">
	<path d="m240,165c-.38 0-.76-.11-1.09-.33-20.51-13.39-38.15-25.55-57.43-41.27-12.47.11-25.12.11-37.38.11-23.52 0-47.87 0-71.78.8-.04 0-.07 0-.11 0-51.2-1.07-55.07-37.16-55.21-38.7-.83-13.16-.97-27.19-.47-44.21.12-4.08 2.59-39.37 53.32-40.29 92.39-.82 138.58-.71 159.45.41 9.4.5 18.01 3.58 24.89 8.89 15.48 11.94 15.17 27.53 14.66 53.36-.09 4.65-.19 9.46-.2 14.71 0 .34.16 37.71-46.71 42.71 2.65 5.61 5.43 11.16 8.12 16.55 3.91 7.83 7.96 15.92 11.76 24.43.36.81.15 1.76-.53 2.34-.37.32-.83.48-1.3.48Z" stroke="black" stroke-width="10" fill="none"/>
</svg>
