<svg xmlns="http://www.w3.org/2000/svg" width="286.7" height="162.6">
	<path d="m168,162c-.4 0-.81-.12-1.16-.37-.8-.57-1.07-1.63-.64-2.51 4.09-8.35 7.81-17.07 11.4-25.51 3.65-8.56 7.4-17.37 11.59-25.91-15.95.19-32.1.47-47.76.74-35.26.61-71.71 1.25-107.6.83-8.63 0-15.75-2.78-21.14-8.26-12.77-13-12.31-38.13-12.14-47.6l.02-.97c.3-17.16.86-49.11 40.93-49.11 34.92-.07 70.26-.38 104.44-.68 32.45-.28 66-.58 99.15-.67h.1c21.04 0 39.58 17.74 39.7 38.02.01 2.5.09 5.02.17 7.68.37 12.29.79 26.22-5.64 38.04-8.27 13.64-23.5 20.13-34.94 20.56-8.5.31-15.28.55-17.44.62-2.72 2.44-14.98 13.44-20.7 18.45-11.11 10.02-21.86 20.86-32.26 31.34l-4.68 4.72c-.39.39-.9.59-1.42.59Z" stroke="black" stroke-width="10" fill="none"/>
</svg>
