<svg xmlns="http://www.w3.org/2000/svg" width="260" height="220">
	<path d="m210.71 210c-5.81 0-46.16-21.69-57.99-33.24-2.06-2.01-4.91-2.81-7.42-2.08-2.33.7-4.62 1.53-6.83 2.33-3.36 1.22-6.84 2.47-10.44 3.3-.56.13-1.13.22-1.69.27-11.88 1.12-23.1-2.68-30-10.17-2.03-2.21-4.85-3.13-7.54-2.47-9.79 2.4-23.19 5.69-34.43-1.94-9.43-4.7-15.07-14.74-15.09-26.89 0-3.29-2.19-6.19-5.43-7.2-13.73-4.31-23.47-13.18-26.74-24.32-2.77-7.94-1.95-16.8 2.32-24.85 5.12-9.66 14.46-17.09 24.97-19.89 3.03-.81 5.31-3.44 5.68-6.55 1.04-8.81 4.17-15.67 9.28-20.4 10.98-11.83 29.36-15.96 45.78-10.28 3.11 1.08 6.39.24 8.37-2.13 6.43-7.7 14.77-15.58 27.93-15.58 14 0 19.66 8.47 23.4 14.07l.13.2c1.76 2.64 5.02 3.88 8.12 3.08.97-.25 1.94-.51 2.92-.77 7.02-1.88 14.28-3.83 21.89-1.62 13.99 3.06 25.41 14.94 28.44 29.58.68 3.31 3.42 5.8 6.65 6.06 9.32.74 16 3.32 21 8.13 11.69 9.61 16.36 25.65 11.38 39.08-3.34 12.45-14.75 18.68-25.2 23.54-2.62 1.22-4.31 3.89-4.3 6.81 0 5.85-.58 12.58-4.99 18.16-4.97 7.91-13.5 10.79-19.5 12.26-2.32.57-4.21 2.13-5.19 4.27-.95 2.08-.89 4.45.15 6.49 6.98 13.61 16.2 29.47 16.3 29.63.37.64.36 1.44-.03 2.07-.21.33-.71.91-1.68 1.03-.06 0-.14.01-.21.01Z" stroke="black" stroke-width="10" fill="none"/>
</svg>
