<svg xmlns="http://www.w3.org/2000/svg" viewBox="848.86 917.43 274.2 206.7" width="275" height="210">
	<path d="m30,200c-.38 0-.76-.11-1.1-.33-.78-.51-1.1-1.5-.78-2.37l14.02-37.64c-1.64.18-3.25.27-4.83.27-25.47 0-46.2-20.72-46.2-46.2 0-19.77 12.92-37.59 31.58-43.83 1.04-24.52 21.44-44.24 46.16-44.24 9.6 0 18.71 2.86 26.46 8.3 11.77-13.14 28.5-20.63 46.18-20.63 29.24 0 54.52 20.49 60.67 48.93 24.67 4.19 43.1 25.89 43.1 51.07 0 13.54-5.21 26.35-14.67 36.08-9.13 9.39-21.25 14.91-34.24 15.62-4.84 11.11-15.61 18.21-27.8 18.21-8.4 0-16.37-3.47-22.1-9.57-9.71 4.91-20.49 7.5-31.29 7.5-17.22 0-33.62-6.29-46.4-17.75l-37.38 36.02c-.38.37-.88.56-1.39.56Z" stroke="black" stroke-width="10" fill="none"/>
</svg>
